<?xml version="1.0" encoding="utf-8"?>
<!-- Generator: Adobe Illustrator 17.0.0, SVG Export Plug-In . SVG Version: 6.00 Build 0)  -->
<!DOCTYPE svg PUBLIC "-//W3C//DTD SVG 1.1//EN" "http://www.w3.org/Graphics/SVG/1.1/DTD/svg11.dtd">
<svg version="1.1" id="Layer_1" xmlns="http://www.w3.org/2000/svg" xmlns:xlink="http://www.w3.org/1999/xlink" x="0px" y="0px"
	 width="68.755px" height="69.078px" viewBox="0 0 68.755 69.078" enable-background="new 0 0 68.755 69.078" xml:space="preserve">
<g>
	<g>
		<path fill="#C83227" d="M35.131,69.078H8.976v-3h23.149l-0.045-19.605l-6.892,0.033v11.157H10.611V43.577l11.575-0.056v-7.844
			H10.623l-0.082-11.052L3,24.691v44.293H0V21.717l10.519-0.093l-0.066-8.979H0V0h13.359l0.071,9.646h8.756V0h46.568v35.677H46.731
			v10.725l-11.653,0.057L35.131,69.078z M13.611,54.663h8.575v-8.142l-8.575,0.042V54.663z M25.187,35.677v7.829l6.888-0.033v-7.796
			H25.187z M35.074,35.677v7.781l8.657-0.042v-7.739H35.074z M46.731,32.677h19.023V3H25.187v6.646h9.888v11.762l8.657-0.076V10.106
			l13.931,0.205v13.897l-10.931,0.097V32.677z M35.074,32.677h8.657v-8.345l-8.657,0.076V32.677z M25.187,32.677h6.888v-8.243
			l-6.888,0.061V32.677z M13.6,32.677h8.586v-8.155l-8.646,0.076L13.6,32.677z M13.453,12.646l0.066,8.952l8.668-0.077v-8.875
			H13.453z M25.187,12.646v8.849l6.888-0.061v-8.788H25.187z M46.731,13.151v8.154l7.931-0.07v-7.967L46.731,13.151z M3,9.646h7.43
			L10.381,3H3V9.646z"/>
		<rect x="1.5" y="66.078" fill="#C83227" width="7.476" height="3"/>
	</g>
</g>
</svg>
