<?xml version="1.0" encoding="utf-8"?>
<!-- Generator: Adobe Illustrator 17.0.0, SVG Export Plug-In . SVG Version: 6.00 Build 0)  -->
<!DOCTYPE svg PUBLIC "-//W3C//DTD SVG 1.1//EN" "http://www.w3.org/Graphics/SVG/1.1/DTD/svg11.dtd">
<svg version="1.1" id="Layer_1" xmlns="http://www.w3.org/2000/svg" xmlns:xlink="http://www.w3.org/1999/xlink" x="0px" y="0px"
	 width="117.5px" height="18.5px" viewBox="0 0 117.5 18.5" enable-background="new 0 0 117.5 18.5" xml:space="preserve">
<polygon fill="#FFFFFF" points="19.343,15.299 19.343,16.828 16.962,16.828 16.962,4.844 5.334,4.844 5.334,10.817 8.055,10.817 
	8.055,6.728 14.296,6.728 14.296,16.792 0,16.792 0,15.299 12.802,15.299 12.802,8.221 9.548,8.221 9.548,12.312 3.841,12.312 
	3.841,3.351 18.457,3.351 18.457,15.299 "/>
<polygon fill="#FFFFFF" points="38.686,15.299 38.686,16.828 36.305,16.828 36.305,4.844 24.677,4.844 24.677,10.817 27.398,10.817 
	27.398,6.728 33.637,6.728 33.637,16.792 19.343,16.792 19.343,15.299 32.144,15.299 32.144,8.221 28.89,8.221 28.89,12.312 
	23.183,12.312 23.183,3.351 37.798,3.351 37.798,15.299 "/>
<polygon fill="#FFFFFF" points="58.027,15.071 58.027,16.6 55.648,16.6 55.648,4.616 44.018,4.616 44.018,10.589 46.739,10.589 
	46.739,6.5 52.98,6.5 52.98,16.563 38.686,16.563 38.686,15.071 51.487,15.071 51.487,7.993 48.233,7.993 48.233,12.083 
	42.526,12.083 42.526,3.123 57.141,3.123 57.141,15.071 "/>
<polygon fill="#FFFFFF" points="77.371,15.071 77.371,16.6 74.989,16.6 74.989,4.616 63.363,4.616 63.363,10.589 66.083,10.589 
	66.083,6.5 72.323,6.5 72.323,16.563 58.027,16.563 58.027,15.071 70.828,15.071 70.828,7.993 67.574,7.993 67.574,12.083 
	61.868,12.083 61.868,3.123 76.484,3.123 76.484,15.071 "/>
<polygon fill="#FFFFFF" points="96.714,15.071 96.714,16.6 94.333,16.6 94.333,4.616 82.705,4.616 82.705,10.589 85.426,10.589 
	85.426,6.5 91.667,6.5 91.667,16.563 77.371,16.563 77.371,15.071 90.173,15.071 90.173,7.993 86.919,7.993 86.919,12.083 
	81.213,12.083 81.213,3.123 95.828,3.123 95.828,15.071 "/>
<polygon fill="#FFFFFF" points="116.057,15.071 116.057,16.6 113.676,16.6 113.676,4.616 102.048,4.616 102.048,10.589 
	104.769,10.589 104.769,6.5 111.008,6.5 111.008,16.563 96.714,16.563 96.714,15.071 109.516,15.071 109.516,7.993 106.262,7.993 
	106.262,12.083 100.554,12.083 100.554,3.123 115.169,3.123 115.169,15.071 "/>
<linearGradient id="SVGID_1_" gradientUnits="userSpaceOnUse" x1="-33" y1="9.25" x2="120.5" y2="9.25">
	<stop  offset="0.2365" style="stop-color:#FFFFFF"/>
	<stop  offset="0.3479" style="stop-color:#FFFFFF;stop-opacity:0.854"/>
	<stop  offset="1" style="stop-color:#FFFFFF;stop-opacity:0"/>
</linearGradient>
<rect x="-33" fill="url(#SVGID_1_)" width="153.5" height="18.5"/>
</svg>
