<?xml version="1.0" encoding="utf-8"?>
<!-- Generator: Adobe Illustrator 17.0.0, SVG Export Plug-In . SVG Version: 6.00 Build 0)  -->
<!DOCTYPE svg PUBLIC "-//W3C//DTD SVG 1.1//EN" "http://www.w3.org/Graphics/SVG/1.1/DTD/svg11.dtd">
<svg version="1.1" id="Layer_1" xmlns="http://www.w3.org/2000/svg" xmlns:xlink="http://www.w3.org/1999/xlink" x="0px" y="0px"
	 width="279.5px" height="91.352px" viewBox="0 0 279.5 91.352" enable-background="new 0 0 279.5 91.352" xml:space="preserve">
<g>
	<path fill="#FFFFFF" d="M39.651,17.227c3.031-1.261,4.985-1.385,5.873-0.379c0.882,1.012-0.633,2.214-4.547,3.6
		c-3.919,1.391-6.885,1.959-8.904,1.705v10.23c5.05-2.019,7.768-2.711,8.146-2.084c0.379,0.633-0.568,1.581-2.842,2.842
		c-2.273,1.267-5.435,2.783-9.473,4.547c-4.043,1.77-7.643,3.541-10.799,5.305c-3.162,1.77-5.246,2.907-6.252,3.41
		c-1.012,0.509-2.149,0.379-3.41-0.379c-1.267-0.758-2.463-1.764-3.6-3.031c-1.137-1.261-0.379-1.954,2.273-2.084
		c2.652-0.125,5.873-0.947,9.662-2.463c-0.254-3.28-0.633-6.122-1.137-8.525c-0.509-2.398-1.326-4.227-2.463-5.494
		c-1.137-1.261-1.391-2.084-0.758-2.463c0.627-0.379,2.143-0.125,4.547,0.758c2.398,0.888,3.535,2.084,3.41,3.6
		c-0.13,1.516-0.189,5.18-0.189,10.988l9.094-3.031c0-8.336-0.065-13.197-0.189-14.588c-0.13-1.385-0.32-2.901-0.568-4.547
		c-0.254-1.64-0.758-3.09-1.516-4.357c-0.758-1.261-0.947-2.019-0.568-2.273c0.379-0.249,1.83,0.065,4.357,0.947
		c2.522,0.888,3.535,2.084,3.031,3.6c-0.509,1.516-0.758,3.665-0.758,6.441C34.092,19.252,36.62,18.494,39.651,17.227z
		 M21.653,71.031c0.882-2.019,1.451-1.071,1.705,2.842c0.249,3.92-0.947,7.265-3.6,10.041s-4.109,3.091-4.357,0.947
		c-0.254-2.144,0.059-3.789,0.947-4.926c0.882-1.137,1.705-2.332,2.463-3.6C19.817,74.82,20.765,73.056,21.653,71.031z
		 M47.229,40.53c-0.254-2.143,1.072-2.273,3.979-0.379c2.901,1.895,3.724,3.351,2.463,4.357c-1.267,1.012-2.783,2.273-4.547,3.789
		c-1.77,1.516-3.919,3.351-6.441,5.494c-2.528,2.149-4.677,4.109-6.441,5.873c-1.77,1.771-1.516,2.463,0.758,2.084
		s7.199-1.326,14.777-2.842c-2.528-3.279-3.41-5.174-2.652-5.684c0.758-0.503,2.711,0.189,5.873,2.084
		c3.156,1.895,4.482,4.488,3.979,7.768c-0.509,3.286-2.404,2.652-5.684-1.895c-3.789,0.758-7.454,1.771-10.988,3.031
		c2.019,1.013,2.777,2.025,2.273,3.031c-0.509,1.013-0.758,3.41-0.758,7.199s0.125,6.82,0.379,9.094
		c0.249,2.273-0.444,4.86-2.084,7.768c-1.646,2.901-2.972,3.221-3.979,0.947c-1.012-2.273-2.907-4.357-5.684-6.252
		c-2.783-1.895-2.463-2.397,0.947-1.516s5.305,0.438,5.684-1.326s0.503-5.05,0.379-9.852c-0.13-4.795-0.444-7.578-0.947-8.336
		c-4.547,1.268-7.833,2.404-9.852,3.41c-2.025,1.013-3.351,1.078-3.979,0.189c-0.633-0.882-0.947-1.953-0.947-3.221
		c0-1.516,1.196-2.587,3.6-3.221c2.398-0.627,6.5-4.103,12.314-10.419c-6.317,0.757-10.23,1.581-11.746,2.462
		c-1.516,0.889-2.463,0.823-2.842-0.189c-0.379-1.006-0.699-2.084-0.947-3.22c-0.254-1.137,0.503-2.084,2.273-2.842
		c1.764-0.758,3.41-2.333,4.926-4.736c1.516-2.398,2.208-4.227,2.084-5.494c-0.13-1.261,1.137-1.261,3.789,0
		c2.652,1.267,2.966,2.652,0.947,4.168c-2.025,1.516-4.043,3.221-6.063,5.115c-2.025,1.895-2.528,2.842-1.516,2.842
		c1.261,0,5.05-0.125,11.367-0.379C45.713,45.645,47.478,42.679,47.229,40.53z M53.671,33.141c1.516,1.77,4.482,2.593,8.904,2.463
		c4.417-0.125,7.637-0.882,9.662-2.273c2.019-1.385,3.6-4.168,4.736-8.336s1.705-4.606,1.705-1.326c0,3.286,0.568,6.193,1.705,8.715
		c1.137,2.528,0.314,4.422-2.463,5.684c-2.783,1.267-6.885,2.084-12.314,2.463c-5.435,0.379-9.603-0.379-12.504-2.273
		c-2.907-1.895-4.357-4.357-4.357-7.389c0-3.28,0.189-7.578,0.568-12.883s0.125-8.774-0.758-10.42
		c-0.888-1.64-0.823-2.463,0.189-2.463c1.006,0,2.522,0.444,4.547,1.326c2.019,0.888,2.711,1.895,2.084,3.031
		c-0.633,1.137-1.457,5.37-2.463,12.693c4.795-2.019,8.082-3.659,9.852-4.926c1.764-1.261,2.966-2.522,3.6-3.789
		c0.627-1.261,2.084-0.693,4.357,1.705c2.273,2.404,2.652,3.73,1.137,3.979c-1.516,0.254-4.109,0.888-7.768,1.895
		c-3.665,1.012-7.519,2.273-11.557,3.789C51.776,28.594,52.155,31.377,53.671,33.141z M62.954,73.115
		c2.143,1.646,3.28,3.979,3.41,7.01c0.125,3.031-0.758,3.729-2.652,2.084c-1.895-1.64-4.736-4.168-8.525-7.578
		s-5.115-5.174-3.979-5.305c1.137-0.124,2.842,0.065,5.115,0.568C58.596,70.404,60.805,71.475,62.954,73.115z"/>
</g>
<g>
	<path fill="#FFFFFF" d="M134.683,42.045c-0.13,0.633-0.32,3.854-0.568,9.662c3.535-0.503,6.063-0.693,7.578-0.568
		c1.516,0.13,2.901,0.889,4.168,2.273c1.261,1.392,0.568,2.025-2.084,1.895c-2.652-0.124-5.873-0.189-9.662-0.189v23.492
		c0,6.82-1.202,8.585-3.6,5.305c-2.404-3.279-3.221-5.932-2.463-7.957c0.758-2.019,1.196-4.736,1.326-8.146
		c0.125-3.41,0.189-7.389,0.189-11.936l-9.473,1.137c-0.509,6.572-2.149,11.877-4.926,15.914c-2.783,4.044-5.494,6.696-8.146,7.957
		c-2.652,1.268-2.907,0.823-0.758-1.326c2.143-2.143,4.168-5.115,6.063-8.904s3.221-8.081,3.979-12.883
		c-4.547,1.013-7.643,1.646-9.283,1.895c-1.646,0.255-3.6-0.379-5.873-1.895s-1.959-2.208,0.947-2.084
		c2.901,0.131,7.637-0.313,14.209-1.326c0-6.063-0.379-10.23-1.137-12.504c-2.528,0.254-4.612-0.249-6.252-1.516
		c-1.646-1.261-1.078-1.954,1.705-2.084c2.777-0.125,6.69-0.568,11.746-1.326c5.05-0.758,8.715-1.516,10.988-2.273
		s4.606-0.379,7.01,1.137c2.398,1.516,2.273,2.338-0.379,2.463c-2.652,0.13-5.749,0.444-9.283,0.947
		C133.482,40.47,134.808,41.417,134.683,42.045z M146.998,19.5c1.261-5.305,1.385-9.094,0.379-11.367
		c-1.012-2.273,0.249-2.777,3.789-1.516c3.535,1.267,5.174,2.338,4.926,3.221c-0.254,0.888-1.516,3.854-3.789,8.904
		c4.292-0.503,8.395-1.072,12.314-1.705c3.914-0.627,7.069,0.13,9.473,2.273c2.398,2.149,1.072,3.162-3.979,3.031
		c-5.056-0.125-11.367,0.065-18.945,0.568c-1.267,2.528-2.463,4.867-3.6,7.01c-1.137,2.149-2.149,3.096-3.031,2.842
		c-0.888-0.249-1.012-1.072-0.379-2.463c0.627-1.385,1.326-3.724,2.084-7.01c-5.305,0.509-10.74,1.137-16.293,1.895
		c0.249,5.559-0.189,8.022-1.326,7.389c-1.137-0.627-2.084-2.842-2.842-6.631c-7.075,1.012-11.811,1.77-14.209,2.273
		c-2.404,0.509-4.926-0.249-7.578-2.273c-2.652-2.019-2.273-2.901,1.137-2.652c3.41,0.254,10.041-0.125,19.893-1.137
		c-1.267-4.547-2.652-7.768-4.168-9.662s-0.444-2.522,3.221-1.895c3.659,0.633,5.553,2.025,5.684,4.168
		c0.125,2.149,0.189,4.357,0.189,6.631C135.5,20.891,141.184,20.258,146.998,19.5z M129.568,52.465c0-5.808-0.13-9.094-0.379-9.852
		c-0.254-0.758-0.758-1.64-1.516-2.652l-9.094,1.137c1.516,2.273,2.273,3.789,2.273,4.547c0,0.509-0.13,3.031-0.379,7.578
		L129.568,52.465z M154.386,42.803c0.882,0.633,1.137,1.77,0.758,3.41c-0.379,1.646-0.568,5.115-0.568,10.42
		s-0.065,8.904-0.189,10.799c-0.13,1.895-0.633,3.221-1.516,3.979c-0.888,0.758-1.705,0.32-2.463-1.326
		c-0.758-1.64-0.888-4.168-0.379-7.578c0.503-3.41,0.627-6.879,0.379-10.42c-0.254-3.535-0.888-6.376-1.895-8.525
		c-1.012-2.143-0.509-2.966,1.516-2.463C152.048,41.607,153.498,42.175,154.386,42.803z M159.502,79.178
		c1.516,0.634,2.901,1.078,4.167,1.326c1.262,0.255,2.02-1.071,2.273-3.979c0.249-2.9,0.379-7.134,0.379-12.693
		c0-5.553-0.189-10.42-0.568-14.588s-0.888-7.768-1.516-10.799c-0.633-3.031-1.201-5.05-1.705-6.063
		c-0.509-1.006-0.633-1.705-0.378-2.084c0.249-0.379,1.326-0.314,3.22,0.189c1.895,0.509,3.41,1.078,4.547,1.705
		c1.137,0.633,1.516,1.646,1.137,3.031c-0.379,1.391-0.633,3.665-0.758,6.82c-0.13,3.162-0.189,6.631-0.189,10.42
		c0,3.541,0.189,8.212,0.568,14.02c0.379,5.814,0.568,9.852,0.568,12.125c0,2.025-0.189,4.233-0.568,6.631
		c-0.379,2.398-1.267,4.168-2.652,5.305c-1.391,1.137-2.403,1.072-3.031-0.189c-0.633-1.267-1.58-2.717-2.841-4.357
		c-1.267-1.646-2.652-3.221-4.168-4.736s-2.025-2.397-1.516-2.652C156.974,78.361,157.986,78.551,159.502,79.178z"/>
</g>
<g>
	<path fill="#FFFFFF" d="M233.142,38.446c5.05,1.77,7.258,3.286,6.631,4.547c-0.634,1.267-1.078,3.919-1.326,7.957
		c4.292-0.758,7.892-1.451,10.799-2.084c2.9-0.627,5.305-0.189,7.199,1.326s0.692,2.593-3.6,3.22
		c-4.299,0.634-9.094,1.457-14.398,2.463c-0.255,3.541-0.379,6.572-0.379,9.094c4.547-0.758,7.892-1.326,10.041-1.705
		c2.143-0.379,4.168,0.255,6.063,1.895c1.895,1.646,1.385,2.594-1.516,2.842c-2.907,0.255-7.768,0.758-14.588,1.516l-0.379,10.609
		c15.659-1.516,25.197-2.463,28.607-2.842s6.187,0.379,8.336,2.273c2.143,1.895,2.966,3.221,2.463,3.979
		c-0.51,0.758-2.463,0.883-5.873,0.379c-3.41-0.503-8.467-0.692-15.156-0.568c-6.696,0.131-12.693,0.444-17.998,0.947
		c-5.305,0.504-11.877,1.262-19.703,2.273c-7.833,1.007-12.824,1.705-14.967,2.084c-2.149,0.379-4.044,0.125-5.684-0.758
		c-1.646-0.888-2.842-1.835-3.6-2.842c-0.758-1.012,0.124-1.516,2.652-1.516c2.776,0,7.199-0.248,13.262-0.758
		c6.063-0.503,13.889-1.261,23.492-2.273v-10.23c-4.044,0.758-6.951,1.268-8.715,1.516c-1.771,0.255-3.854-0.313-6.252-1.705
		c-2.404-1.385-1.96-2.143,1.326-2.273c3.279-0.124,7.826-0.692,13.641-1.705v-9.852c-5.814,1.013-9.728,1.646-11.746,1.895
		c-2.025,0.255-4.299-0.758-6.82-3.031c-2.025,2.528-4.044,4.488-6.063,5.873c-2.025,1.392-4.299,2.404-6.82,3.031
		c-2.528,0.634-2.339-0.124,0.568-2.273c2.9-2.143,5.618-4.984,8.146-8.525c2.521-3.534,3.658-6.062,3.41-7.578
		c-0.255-1.516,0.379-2.019,1.895-1.516c1.516,0.509,3.031,1.326,4.547,2.463s1.64,2.084,0.379,2.842
		c-1.268,0.758-2.783,2.404-4.547,4.925c7.068-0.503,12.628-1.261,16.672-2.273c0-5.304-0.51-9.851-1.516-13.64l-6.063,0.758
		c-0.758,3.031-1.705,3.162-2.842,0.379c-1.137-2.777-2.594-6.376-4.357-10.799c-1.771-4.417-3.476-7.513-5.115-9.283
		c-1.646-1.764-1.705-2.711-0.189-2.842c1.516-0.125,3.031-0.059,4.547,0.189c1.516,0.254,6.755-0.379,15.725-1.895
		c8.963-1.516,14.522-2.587,16.672-3.221c2.143-0.627,4.168-0.503,6.063,0.379c1.895,0.888,3.848,2.084,5.873,3.6
		c2.019,1.516,2.332,2.717,0.947,3.6c-1.392,0.888-3.352,3.6-5.873,8.146c-2.528,4.547-4.423,7.708-5.684,9.473
		c-1.268,1.77-2.273,1.646-3.031-0.379C244.509,36.805,239.452,37.439,233.142,38.446z M225.564,36.551
		c11.112-1.764,18.69-2.901,22.734-3.41c2.273-5.305,3.658-9.408,4.168-12.314c0.503-2.901,0.248-4.606-0.758-5.115
		c-1.013-0.503-3.73-0.438-8.146,0.189c-4.423,0.633-11.936,1.835-22.545,3.6c0.503,1.516,1.137,3.919,1.895,7.199
		c4.795-1.006,9.218-2.143,13.262-3.41c4.037-1.261,6.755-1.196,8.146,0.189c1.385,1.391-0.568,2.652-5.873,3.789
		s-10.23,1.835-14.777,2.084C224.427,32.638,225.054,35.035,225.564,36.551z"/>
</g>
</svg>
